<svg width="1140" height="460" viewBox="0 0 1140 460" fill="none" xmlns="http://www.w3.org/2000/svg">
<path d="M997 243C997 302.345 949.31 356.336 871.605 395.549C793.958 434.734 686.618 459 568 459C449.382 459 342.042 434.734 264.395 395.549C186.69 356.336 139 302.345 139 243C139 183.655 186.69 129.664 264.395 90.4506C342.042 51.2656 449.382 27 568 27C686.618 27 793.958 51.2656 871.605 90.4506C949.31 129.664 997 183.655 997 243Z" fill="white" stroke="#F4D2D0" stroke-width="2"/>
<path d="M609 215C609 273.958 575.1 327.434 520.091 366.211C465.085 404.986 389.042 429 305 429C220.958 429 144.915 404.986 89.9086 366.211C34.8995 327.434 1 273.958 1 215C1 156.042 34.8995 102.566 89.9086 63.7894C144.915 25.0144 220.958 1 305 1C389.042 1 465.085 25.0144 520.091 63.7894C575.1 102.566 609 156.042 609 215Z" stroke="#F4D2D0" stroke-width="2"/>
<path d="M1139 215C1139 273.958 1105.1 327.434 1050.09 366.211C995.085 404.986 919.042 429 835 429C750.958 429 674.915 404.986 619.909 366.211C564.9 327.434 531 273.958 531 215C531 156.042 564.9 102.566 619.909 63.7894C674.915 25.0144 750.958 1 835 1C919.042 1 995.085 25.0144 1050.09 63.7894C1105.1 102.566 1139 156.042 1139 215Z" stroke="#F4D2D0" stroke-width="2"/>
</svg>
