<svg width="44" height="44" viewBox="0 0 44 44" fill="none" xmlns="http://www.w3.org/2000/svg">
<g clip-path="url(#clip0_2168_1389)">
<path d="M11 27.5H38.5" stroke="#2095E0" stroke-width="2.75" stroke-linecap="round" stroke-linejoin="round"/>
<path d="M38.5 34.8335H11" stroke="#2095E0" stroke-width="2.75" stroke-linecap="round" stroke-linejoin="round"/>
<path d="M27.5 20.1665H38.5" stroke="#2095E0" stroke-width="2.75" stroke-linecap="round" stroke-linejoin="round"/>
<path d="M38.5 12.8335H27.5" stroke="#2095E0" stroke-width="2.75" stroke-linecap="round" stroke-linejoin="round"/>
<path d="M16.5 16.5002H18.3333C18.6959 16.5002 19.0504 16.6077 19.3519 16.8091C19.6534 17.0106 19.8884 17.2969 20.0271 17.6319C20.1659 17.9669 20.2022 18.3355 20.1314 18.6912C20.0607 19.0468 19.8861 19.3735 19.6297 19.6299C19.3733 19.8863 19.0466 20.0609 18.691 20.1316C18.3354 20.2023 17.9667 20.166 17.6317 20.0273C17.2967 19.8885 17.0104 19.6535 16.809 19.352C16.6075 19.0506 16.5 18.6961 16.5 18.3335V13.7502C16.5 12.7777 16.8863 11.8451 17.5739 11.1574C18.2616 10.4698 19.1942 10.0835 20.1667 10.0835" stroke="#2095E0" stroke-width="2.75" stroke-linecap="round" stroke-linejoin="round"/>
<path d="M5.5 16.5002H7.33333C7.69593 16.5002 8.05039 16.6077 8.35188 16.8091C8.65337 17.0106 8.88835 17.2969 9.02711 17.6319C9.16587 17.9669 9.20218 18.3355 9.13144 18.6912C9.0607 19.0468 8.88609 19.3735 8.6297 19.6299C8.3733 19.8863 8.04663 20.0609 7.691 20.1316C7.33537 20.2023 6.96674 20.166 6.63175 20.0273C6.29675 19.8885 6.01042 19.6535 5.80897 19.352C5.60752 19.0506 5.5 18.6961 5.5 18.3335V13.7502C5.5 12.7777 5.88631 11.8451 6.57394 11.1574C7.26158 10.4698 8.19421 10.0835 9.16667 10.0835" stroke="#2095E0" stroke-width="2.75" stroke-linecap="round" stroke-linejoin="round"/>
</g>
<defs>
<clipPath id="clip0_2168_1389">
<rect width="44" height="44" fill="white"/>
</clipPath>
</defs>
</svg>