<svg width="238" height="103" viewBox="0 0 238 103" fill="none" xmlns="http://www.w3.org/2000/svg">
<path d="M114.619 78.5849C101.233 90.4714 85.9022 95.1372 69.3498 96.748C62.2401 97.4145 55.186 96.8035 48.4651 94.915C32.7459 90.5825 19.4152 81.9731 8.52841 69.9199C2.02968 62.6991 -1.24743 54.2563 1.75198 44.3138C2.19634 42.9252 2.64071 41.481 3.36279 40.259C5.19576 37.093 8.75057 36.2598 11.9166 38.426C13.3608 39.4258 14.4161 41.0367 15.7492 42.4253C15.7492 46.2579 11.0279 48.1464 12.361 52.4789C13.583 56.5336 15.4715 60.033 18.4154 62.9213C29.1911 73.5303 41.4664 81.8065 56.6301 84.1393C71.7938 86.4722 86.0133 82.6952 99.2329 75.1411C99.8439 74.8079 100.233 74.0858 100.677 73.4748C100.844 73.1971 100.899 72.8638 101.121 72.1417C98.6775 70.1421 96.1224 68.0314 93.6229 65.8651C87.4575 60.4773 82.0696 54.3674 78.5147 46.8689C71.8494 32.8161 74.9599 19.9296 87.2908 10.376C92.9564 5.98793 99.2329 2.93302 106.176 1.26668C115.396 -1.01065 123.95 0.988944 131.393 6.59896C139.447 12.6533 142.78 20.9295 140.891 31.0386C139.225 39.8702 135.781 48.0353 131.171 55.7005C129.06 59.1998 127.005 62.6435 124.506 66.7538C134.615 71.975 145.446 71.8084 155.833 72.9193C168.386 74.308 186.994 70.1421 199.269 64.0322C196.88 60.9772 192.992 60.4218 190.382 58.2555C187.882 56.1448 185.383 53.923 183.383 51.368C181.883 49.4239 182.717 47.091 184.439 45.3691C186.105 43.6472 188.16 42.8696 190.437 44.0916C193.048 45.4802 195.436 47.2577 198.158 48.4797C207.934 52.9788 217.821 57.089 228.708 58.1444C229.818 58.2555 230.929 58.3666 231.985 58.6443C234.706 59.3664 236.651 61.0328 237.206 63.81C237.761 66.6428 236.317 68.8645 233.929 70.3642C229.263 73.3636 224.375 76.0298 219.82 79.1959C212.822 84.0838 206.212 89.4716 201.657 96.9146C201.102 97.8589 200.38 98.7476 199.602 99.5252C197.047 102.302 194.214 103.025 191.77 101.525C189.271 100.025 188.049 97.0813 189.049 93.7486C189.771 91.3046 191.104 89.0272 192.326 86.7499C193.27 84.9169 194.381 83.1396 196.27 79.918C181.606 83.3062 168.442 87.1387 154.666 85.9167C141.169 84.7503 128.061 82.5285 114.619 78.5849ZM111.73 62.9213C118.451 54.5896 123.728 46.6467 126.894 37.4263C127.949 34.3158 128.894 31.0386 129.227 27.7615C130.005 20.374 127.116 15.986 120.284 12.8755C115.674 10.7648 110.842 10.487 106.287 12.32C102.232 13.9864 98.122 15.986 94.6782 18.5966C86.1799 25.0398 84.5691 32.7049 89.6237 41.9809C94.456 50.9791 101.621 57.7556 111.73 62.9213Z" fill="#DBF1FF"/>
</svg>