<svg viewBox="0 0 100 100" fill="none" xmlns="http://www.w3.org/2000/svg">
<circle cx="50" cy="50" r="49.5" stroke="#A4DDFF"/>
<path d="M49.9999 62.3333C60.3092 62.3333 68.6666 53.976 68.6666 43.6667C68.6666 33.3574 60.3092 25 49.9999 25C39.6906 25 31.3333 33.3574 31.3333 43.6667C31.3333 53.976 39.6906 62.3333 49.9999 62.3333Z" stroke="#076197" stroke-width="2.75" stroke-linecap="round" stroke-linejoin="round"/>
<path d="M50 51.6665C54.4183 51.6665 58 48.0848 58 43.6665C58 39.2482 54.4183 35.6665 50 35.6665C45.5817 35.6665 42 39.2482 42 43.6665C42 48.0848 45.5817 51.6665 50 51.6665Z" stroke="#076197" stroke-width="2.75" stroke-linecap="round" stroke-linejoin="round"/>
<path d="M39.3334 59.6665L33.7574 68.9625C33.515 69.367 33.3842 69.8286 33.3784 70.3002C33.3725 70.7717 33.4919 71.2364 33.7242 71.6468C33.9565 72.0572 34.2935 72.3986 34.7008 72.6363C35.1081 72.874 35.5711 72.9995 36.0427 72.9998H63.9574C64.429 72.9995 64.8921 72.874 65.2994 72.6363C65.7067 72.3986 66.0437 72.0572 66.276 71.6468C66.5083 71.2364 66.6276 70.7717 66.6218 70.3002C66.6159 69.8286 66.4851 69.367 66.2427 68.9625L60.6667 59.6665" stroke="#076197" stroke-width="2.75" stroke-linecap="round" stroke-linejoin="round"/>
</svg>