<svg width="142" height="39" viewBox="0 0 142 39" fill="none" xmlns="http://www.w3.org/2000/svg">
<path d="M0 24.3286C0 13.3714 7.42857 0 20.1905 0C28.381 0 32 5.94286 32 13C32 24.8857 24.381 39 11.8095 39C3.80952 39 0 32.1286 0 24.3286ZM8.38095 23.2143C8.38095 28.4143 10.2857 32.5 14.6667 32.5C19.8095 32.5 26.6667 26 26.6667 12.8143C26.6667 6.87143 24 3.71429 20.5714 3.71429C13.3333 3.9 8.38095 14.8571 8.38095 23.2143Z" fill="white"/>
<path d="M33.988 15.4317C36.0422 14.1223 38.0964 13 40.5241 13C42.5783 13 43.8855 13.9353 43.3253 15.8058L42.7651 18.0504C45.1928 15.0576 48.9277 13 52.2892 13C55.4639 13 57.7048 15.0576 56.2108 20.482L53.4096 32.0791C53.0361 33.5755 53.7831 34.1367 54.9036 34.1367C57.1446 34.1367 59.5723 32.8273 61.0663 31.705C61.6265 31.8921 62 32.4532 62 32.8273C62 33.2014 61.8133 33.5755 61.4398 33.9496C58.6386 36.5683 54.7169 39 50.7952 39C47.8072 39 44.8193 37.6906 46.3133 31.8921L48.741 21.7914C49.3012 19.7338 48.3675 18.7986 47.0602 18.7986C45.5663 18.7986 43.1386 20.1079 41.8313 21.4173L38.2831 35.8201C38.0964 38.0647 35.8554 39 33.8012 39C32.6807 39 31.747 38.8129 31 38.2518L35.8554 18.7986C36.0422 18.0504 35.8554 17.4892 35.2952 17.4892C34.9217 17.4892 34.7349 17.6763 34.1747 18.0504C33.241 17.8633 32.8675 16.3669 33.988 15.4317Z" fill="white"/>
<path d="M68.8244 30.7698C69.4113 33.5755 71.7586 34.5108 74.4972 34.5108C78.9962 34.5108 84.4733 31.8921 87.2119 29.0863C88.7768 28.8993 89.3636 29.8345 88.7768 30.7698C84.4733 36.0072 77.4313 39 71.3674 39C65.6947 39 61 36.1942 61 30.0216C61 23.4748 66.2815 13 76.4533 13C82.126 13 83.4953 15.6187 83.4953 17.8633C83.4953 21.9784 80.7567 25.3453 68.8244 30.7698ZM68.6288 28.7122C74.4972 25.7194 78.605 22.1655 78.605 18.7986C78.605 17.6763 77.8226 16.741 76.8445 16.741C70.7806 16.741 68.8244 25.1583 68.6288 28.7122Z" fill="white"/>
<path d="M94.6333 24.5143L95.02 24.3286C97.92 23.5857 101.98 18.9429 103.527 13.5571C104.493 13.1857 105.46 13 106.427 13C108.553 13 109.52 14.1143 109.52 15.4143C109.52 18.3857 104.88 22.8429 101.013 24.8857C101.787 27.6714 103.527 33.6143 107.973 33.6143C109.133 33.6143 110.487 32.6857 112.033 31.5714C112.613 31.7571 113 32.3143 113 32.6857C113 33.0571 112.807 33.4286 112.42 33.8C110.487 36.2143 106.233 39 103.72 39C97.7267 39 95.9867 31.0143 95.2133 27.1143L94.0533 27.3L91.9267 35.8429C91.3467 38.0714 89.0267 39 86.9 39C85.74 39 84.7733 38.8143 84 38.4429L89.0267 19.1286C89.22 18.2 89.0267 17.8286 88.4467 17.8286C88.06 17.8286 87.8667 18.0143 87.2867 18.3857C86.5133 18.0143 86.1267 16.3429 87.2867 15.6C89.4133 14.3 91.54 13.1857 94.0533 13.1857C96.18 13.1857 97.5333 13.9286 96.9533 15.9714L94.6333 24.5143Z" fill="white"/>
<path d="M135.585 30.3957C135.019 33.0144 135.774 34.1367 136.906 34.1367C138.038 34.1367 139.359 33.5755 140.302 31.705C141.434 31.705 142 32.2662 142 33.0144C142 36.5683 137.094 39 133.887 39C131.057 39 128.226 37.8777 128.415 33.9496C125.962 36.9424 122.755 39 119.358 39C113.132 39 112 33.7626 112 30.5827C112 21.7914 118.604 13 126.906 13C129.547 13 131.434 13.5612 132.943 14.6835C133.887 13.7482 135.585 13.1871 136.906 13.1871C138.038 13.1871 138.981 13.3741 139.736 13.7482L135.585 30.3957ZM128.415 30.5827L131.811 17.1151C130.868 16.741 129.925 16.741 128.981 16.741C121.811 16.741 119.358 24.7842 119.358 30.2086C119.358 32.6403 120.679 33.7626 122.566 33.7626C124.264 33.7626 126.717 32.4532 128.415 30.5827Z" fill="white"/>
</svg>