<svg width="145" height="41" viewBox="0 0 145 41" fill="none" xmlns="http://www.w3.org/2000/svg">
<path d="M0 25.5762C0 14.0571 7.89286 0 21.4524 0C30.1548 0 34 6.24762 34 13.6667C34 26.1619 25.9048 41 12.5476 41C4.04762 41 0 33.7762 0 25.5762ZM8.90476 24.4048C8.90476 29.8714 10.9286 34.1667 15.5833 34.1667C21.0476 34.1667 28.3333 27.3333 28.3333 13.4714C28.3333 7.22381 25.5 3.90476 21.8571 3.90476C14.1667 4.1 8.90476 15.619 8.90476 24.4048Z" fill="#076197"/>
<path d="M35.1807 15.6187C37.3675 14.2086 39.5542 13 42.1386 13C44.3253 13 45.7169 14.0072 45.1205 16.0216L44.5241 18.4388C47.1084 15.2158 51.0843 13 54.6627 13C58.0422 13 60.4277 15.2158 58.8374 21.0576L55.8554 33.5468C55.4578 35.1583 56.253 35.7626 57.4458 35.7626C59.8313 35.7626 62.4157 34.3525 64.006 33.1439C64.6024 33.3453 65 33.9496 65 34.3525C65 34.7554 64.8012 35.1583 64.4036 35.5612C61.4217 38.3813 57.247 41 53.0723 41C49.8916 41 46.7108 39.5899 48.3012 33.3453L50.8855 22.4676C51.4819 20.2518 50.488 19.2446 49.0964 19.2446C47.506 19.2446 44.9217 20.6547 43.5301 22.0647L39.753 37.5755C39.5542 39.9928 37.1687 41 34.9819 41C33.7892 41 32.7952 40.7986 32 40.1942L37.1687 19.2446C37.3675 18.4389 37.1687 17.8345 36.5723 17.8345C36.1747 17.8345 35.9759 18.036 35.3795 18.4388C34.3855 18.2374 33.988 16.6259 35.1807 15.6187Z" fill="#076197"/>
<path d="M70.8244 32.1367C71.4113 35.1583 73.7586 36.1655 76.4972 36.1655C80.9962 36.1655 86.4733 33.3453 89.2119 30.3237C90.7768 30.1223 91.3636 31.1295 90.7768 32.1367C86.4733 37.777 79.4313 41 73.3674 41C67.6947 41 63 37.9784 63 31.3309C63 24.2806 68.2815 13 78.4533 13C84.126 13 85.4953 15.8201 85.4953 18.2374C85.4953 22.6691 82.7567 26.295 70.8244 32.1367ZM70.6288 29.9209C76.4972 26.6978 80.605 22.8705 80.605 19.2446C80.605 18.036 79.8226 17.0288 78.8445 17.0288C72.7806 17.0288 70.8244 26.0935 70.6288 29.9209Z" fill="#076197"/>
<path d="M98.6333 25.4L99.02 25.2C101.92 24.4 105.98 19.4 107.527 13.6C108.493 13.2 109.46 13 110.427 13C112.553 13 113.52 14.2 113.52 15.6C113.52 18.8 108.88 23.6 105.013 25.8C105.787 28.8 107.527 35.2 111.973 35.2C113.133 35.2 114.487 34.2 116.033 33C116.613 33.2 117 33.8 117 34.2C117 34.6 116.807 35 116.42 35.4C114.487 38 110.233 41 107.72 41C101.727 41 99.9867 32.4 99.2133 28.2L98.0533 28.4L95.9267 37.6C95.3467 40 93.0267 41 90.9 41C89.74 41 88.7733 40.8 88 40.4L93.0267 19.6C93.22 18.6 93.0267 18.2 92.4467 18.2C92.06 18.2 91.8667 18.4 91.2867 18.8C90.5133 18.4 90.1267 16.6 91.2867 15.8C93.4133 14.4 95.54 13.2 98.0533 13.2C100.18 13.2 101.533 14 100.953 16.2L98.6333 25.4Z" fill="#076197"/>
<path d="M138.799 31.7338C138.252 34.554 138.981 35.7626 140.075 35.7626C141.17 35.7626 142.447 35.1583 143.359 33.1439C144.453 33.1439 145 33.7482 145 34.554C145 38.3813 140.258 41 137.157 41C134.421 41 131.686 39.7914 131.868 35.5612C129.497 38.7842 126.396 41 123.113 41C117.094 41 116 35.3597 116 31.9353C116 22.4676 122.384 13 130.409 13C132.962 13 134.786 13.6043 136.245 14.813C137.157 13.8058 138.799 13.2014 140.075 13.2014C141.17 13.2014 142.082 13.4029 142.811 13.8058L138.799 31.7338ZM131.868 31.9353L135.151 17.4317C134.239 17.0288 133.327 17.0288 132.415 17.0288C125.484 17.0288 123.113 25.6906 123.113 31.5324C123.113 34.1511 124.39 35.3597 126.214 35.3597C127.855 35.3597 130.226 33.9496 131.868 31.9353Z" fill="#076197"/>
</svg>