<svg id="Слой_1" data-name="Слой 1" xmlns="http://www.w3.org/2000/svg" viewBox="0 0 585.57 568.09"><defs><style>.cls-1{fill:#086799;}.cls-2{fill:#89c343;}.cls-3{isolation:isolate;}</style></defs><title>logo</title><g id="Layer_1" data-name="Layer 1"><path class="cls-1" d="M0,429.22c0-45.64,30.1-102,82.54-102,34,0,48.56,25.25,48.56,54.38,0,49.53-31.08,109.73-82.55,109.73C15.54,490.4,0,462.24,0,429.22Zm35-4.85c0,21.36,7.77,38.84,25.25,38.84,21.36,0,49.52-27.19,49.52-82.54,0-25.25-10.68-37.87-24.27-37.87C54.38,343.77,35,389.41,35,424.37Z"/><path class="cls-1" d="M141.78,393.29c7.77-5.82,17.48-9.71,27.19-9.71,8.74,0,13.6,3.89,11.65,11.65L178.68,405a54.68,54.68,0,0,1,39.82-21.37c12.62,0,22.33,8.74,16.5,31.08l-11.65,48.55c-1,5.83,1.94,8.74,6.8,8.74a45.69,45.69,0,0,0,25.25-10.68c1.94,1,3.88,2.91,3.88,4.85a7.42,7.42,0,0,1-1.94,4.86c-11.65,12.62-27.19,19.42-44.67,20.39-12.62,0-25.25-4.85-19.42-30.1l10.68-41.76c1.94-8.74-1-12.62-6.8-12.62-7.77,1-15.54,3.88-21.36,9.71L161.2,476.81c-2.91,8.74-11.65,14.56-20.39,13.59a25.84,25.84,0,0,1-11.65-2.91l20.39-80.6c1-2.92,0-4.86-1.94-4.86a5.33,5.33,0,0,0-4.86,2.92,7.55,7.55,0,0,1-1.94-9.72C139.84,394.26,140.81,393.29,141.78,393.29Z"/><path class="cls-1" d="M285.5,457.38a20.86,20.86,0,0,0,22.34,15.54,75.7,75.7,0,0,0,50.49-22.33c6.8-1,8.74,2.91,5.83,6.79-17.48,20.4-41.76,33-69,34-23.3,0-41.75-11.65-41.75-37.87,0-27.19,21.36-70.89,61.17-70.89,22.34,0,28.17,10.68,28.17,20.39C343.77,420.48,332.11,434.08,285.5,457.38Zm-1-9.71c23.31-12.62,39.82-27.19,39.82-40.78,0-3.89-2-7.77-6.8-7.77h-1C293.27,398.15,285.5,433.11,284.53,447.67Z"/><path class="cls-1" d="M392.32,430.19h1.94c12.63-2.91,28.17-22.33,34-45.64,3.89-1.94,7.77-1.94,11.66-1.94,8.74,0,12.62,4.86,12.62,9.71,0,12.63-19.42,31.08-34,39.82,3.89,11.65,10.68,35.93,28.16,35.93a30.61,30.61,0,0,0,16.51-8.74c1.94,1,3.89,2.91,3.89,4.85a7.44,7.44,0,0,1-2,4.86c-8.74,9.71-26.22,20.39-35.93,20.39-24.27,0-31.07-34-34-50.5l-4.85,1-8.74,35.93c-2.91,8.74-11.65,14.56-20.39,13.59a25.91,25.91,0,0,1-11.66-2.91l20.4-80.6c1-3.89,0-4.86-1.95-4.86a5.33,5.33,0,0,0-4.85,2.91,7.52,7.52,0,0,1-1.94-9.71c0-1,1-1,1.94-1.94,7.77-5.82,17.48-9.71,27.19-9.71,8.74,0,13.59,2.91,11.65,11.65Z"/><path class="cls-1" d="M559.35,455.44c-2.91,10.68,0,15.54,4.86,15.54a14.6,14.6,0,0,0,13.59-9.71c4.86,0,7.77,1.94,7.77,5.83,0,14.56-20.39,24.27-34,24.27-11.65,0-23.31-4.85-22.33-21.36a49,49,0,0,1-36.91,21.36c-25.24,0-31.07-21.36-31.07-35,0-36.9,27.19-73.8,61.18-73.8,8.74-1,17.48,1.94,25.25,6.8,4.85-3.89,10.68-6.8,16.51-5.83a25.78,25.78,0,0,1,11.65,2.92Zm-29.13,1,13.59-56.32a48.77,48.77,0,0,0-11.65-1.94c-29.13,0-39.82,33-39.82,56.32,0,10.68,5.83,15.54,12.63,15.54C514.68,468.07,523.42,464.18,530.22,456.41Z"/><path class="cls-1" d="M215.58,327.26c-109.73-55.35-77.68-135-133-145.67C136,205.87,90.31,291.33,215.58,327.26Z"/><path class="cls-1" d="M527.3,275.79c-58.26-3.88-86.42-55.35-148.57-76.72,21.36-3.88,36.9-17.48,35-48.55C470,122.36,490.4,53.41,488.46,0l-1,1.94c0,1-1,2.92-1.94,2.92C421.45,135,196.16,42.73,170.91,178.68h0c-16.51-21.36-39.81-27.19-54.38-12.62-10.68-5.83-23.31-4.86-32,2.91h0a53,53,0,0,1,23.3,11.65,28.84,28.84,0,0,0-25.25,0,61,61,0,0,1,32.05,5.83h0c-3.89-9.71-11.65-16.51-21.37-18.45,10.69-1,21.37,1.94,29.14,9.71A12.62,12.62,0,0,1,133,165.09H135c35.93-1,50.5,44.67,54.38,60.2a92.26,92.26,0,0,0-13.59-41.75h0C202,65.06,433.11,153.43,480.69,27.19c1.94,34-21.36,87.4-66,112.65l-6.8,2.91c0,1.94,1,4.86,1,6.8v3.88c-1.94,30.11-34,35.93-54.38,33-27.19-3.88-64.09-18.45-116.53,1.94h0c-18.45,7.77-35,20.4-48.56,35,132.07-104.88,230.15,125.27,379.7,42.73h0c-72.83,52.44-248.6,64.09-330.17-29.13,44.67,78.66,262.19,134,341.82,22.33h0A147,147,0,0,1,527.3,275.79ZM319.49,197.13c68.95-1,106.82,55.35,155.37,74.78C416.6,259.28,367.07,218.5,319.49,197.13Z"/><path class="cls-1" d="M135,184.51c-2.91,2.91-1.94,7.77,1,10.68,1,1,1,1,2,1,4.85,1.94,5.82,1,8.74,1.94l4.85,2.92c0-2-1-3.89-1.94-5.83-1-3.88,0-6.8-2.91-10.68a6.31,6.31,0,0,0-8.74-1.94C136,183.54,135,183.54,135,184.51Zm3.89,7.77c-2-1-2-2.92-1-4.86h0a3,3,0,0,1,3.88,0h0c1.94,1,5.83,9.71-2.91,4.86Z"/><path class="cls-2" d="M95.17,177.71a75.39,75.39,0,0,1,31.07-47.58l-3.88-3.89c-17.48,15.54-30.11,29.13-33,52.44,1.94,0,3.88-1,5.83-1m-2.92,44.67c3.89,17.48,10.69,20.39,14.57,18.45a120.57,120.57,0,0,1-11.65-51.47c-2-1.94-3.89-2.91-5.83-4.85A125,125,0,0,0,92.25,222.38Z"/><path class="cls-2" d="M99.05,165.09c-19.42,16.5,8.74-18.45-1.94-51.47l6.8-1.94c5.82,16.5,2.91,32-4.86,53.41"/><path class="cls-2" d="M119.44,130.13c3.89-44.67,48.56-27.19,63.13-36.91-3.89,25.25-32,43.7-60.21,40.79Z"/><path class="cls-2" d="M101,126.24c-14.56-33-43.7-13.59-56.32-20.39,6.8,21.36,34,32.05,55.35,27.19Z"/><path class="cls-2" d="M97.11,114.59c-24.28-33,5.83-42.73,4.85-57.3,23.31,18.46,15.54,47.59,2,60.21Z"/><path class="cls-2" d="M51.47,79.63l1-1.94a61,61,0,0,1,48.55,32c1,2-1.94,3.89-1,6.8-10.68-18.45-28.16-32-48.55-36.9"/><path class="cls-2" d="M55.35,76.72C43.7,44.67,21.36,66,7.77,59.24,15.54,77.69,35,86.43,54.38,80.6Z"/><path class="cls-2" d="M81.57,89.34c12.63-35-18.45-37.87-25.25-51.47-5.82,17.48,2,35.93,17.48,45.64Z"/><g class="cls-3"><path class="cls-1" d="M43.7,533.13A2.57,2.57,0,0,1,46.61,536v29.14a2.57,2.57,0,0,1-2.91,2.91,2.57,2.57,0,0,1-2.91-2.91V538H28.16v27.19a2.57,2.57,0,0,1-2.91,2.91,2.57,2.57,0,0,1-2.91-2.91V536a2.57,2.57,0,0,1,2.91-2.91Z"/></g><g class="cls-3"><path class="cls-1" d="M58.27,559.35l-2,5.83c0,1-1,1.94-2.91,1.94a3.1,3.1,0,0,1-2.91-2.91v-1L61.18,534.1c0-1,1.94-1.94,2.91-1.94,1.94,0,2.92,1,2.92,1.94l10.68,29.13v1a2.58,2.58,0,0,1-2.92,2.91c-1,0-1.94-1-2.91-1.94l-1.94-5.83Zm11.65-4.86L65.06,540.9l-4.85,13.59Z"/></g><g class="cls-3"><path class="cls-1" d="M100,533.13a1.94,1.94,0,0,1,0,3.88h-6.8v27.2a2.57,2.57,0,0,1-2.91,2.91,3.1,3.1,0,0,1-2.91-2.91V537H80.6a1.94,1.94,0,0,1,0-3.88Z"/><path class="cls-1" d="M120.42,533.13c4.85,0,10.68,2.91,10.68,10.68a10.74,10.74,0,0,1-10.68,10.68h-6.8v10.69a2.92,2.92,0,0,1-5.83,0V536a2.57,2.57,0,0,1,2.91-2.91Zm-1,15.54c3.89,0,6.8-1.94,6.8-5.83s-2.91-5.83-6.8-5.83h-5.82v11.66Z"/><path class="cls-1" d="M136.92,545.75c0-7.76,4.86-13.59,12.63-13.59s12.62,5.83,12.62,13.59v8.74c0,7.77-4.85,13.6-12.62,13.6s-12.63-5.83-12.63-13.6Zm4.86,7.77c0,5.83,2.91,9.71,6.8,9.71s6.79-3.88,6.79-9.71v-6.79c0-5.83-2.91-9.72-6.79-9.72s-6.8,3.89-6.8,9.72Z"/><path class="cls-1" d="M191.31,564.21a2.92,2.92,0,0,1-5.83,0V551.58H172.85v12.63a2.91,2.91,0,0,1-5.82,0V535.07a2.91,2.91,0,1,1,5.82,0v11.66h12.63V535.07a2.92,2.92,0,0,1,5.83,0Z"/><path class="cls-1" d="M204.9,559.35,202,565.18c0,1-1,1.94-2.92,1.94a3.1,3.1,0,0,1-2.91-2.91v-1l10.68-29.13c0-1,1.95-1.94,2.92-1.94,1.94,0,2.91,1,2.91,1.94l10.68,29.13v1a2.57,2.57,0,0,1-2.91,2.91c-1,0-1.94-1-2.92-1.94l-1.94-5.83Zm10.68-4.86-4.85-13.59-4.86,13.59Z"/><path class="cls-1" d="M244.72,564.21V553.52l-4.86-2.91-7.77,14.57a2.09,2.09,0,0,1-1.94,1.94,2.57,2.57,0,0,1-2.91-2.91v-2L235,547.7c-3.88-2.92-5.82-6.8-5.82-12.63a2.91,2.91,0,1,1,5.82,0c0,4.86,1,7.77,6.8,10.68l2.92,2V535.07a2.91,2.91,0,1,1,5.82,0V547.7l2.92-2c5.82-3.88,6.79-5.82,6.79-10.68a2.92,2.92,0,0,1,5.83,0c0,5.83-1.94,9.71-5.83,12.63L268,562.26v2a2.57,2.57,0,0,1-2.91,2.91,2.09,2.09,0,0,1-1.94-1.94l-7.77-14.57-4.86,2.91v10.69a2.91,2.91,0,0,1-5.82,0Z"/><path class="cls-1" d="M296.18,564.21a2.91,2.91,0,0,1-5.82,0V551.58H277.73v12.63a2.91,2.91,0,0,1-5.82,0V535.07a2.91,2.91,0,1,1,5.82,0v11.66h12.63V535.07a2.91,2.91,0,1,1,5.82,0Z"/><path class="cls-1" d="M308.81,559.35l-1.94,5.83c0,1-1,1.94-2.92,1.94a3.1,3.1,0,0,1-2.91-2.91v-1l10.68-29.13c0-1,1.94-1.94,2.91-1.94,1.95,0,2.92,1,2.92,1.94l10.68,29.13v1a2.57,2.57,0,0,1-2.91,2.91c-1,0-1.95-1-2.92-1.94l-1.94-5.83Zm10.68-4.86-4.86-13.59-4.85,13.59Z"/><path class="cls-1" d="M356.39,564.21a2.92,2.92,0,0,1-5.83,0V553.52h-5.82L336,566.15l-1.94,1.94a2.58,2.58,0,0,1-2.92-2.91c0-1,0-1,1-1.95l7.77-10.68c-3.88-1-6.8-4.85-6.8-9.71,0-6.8,5.83-9.71,10.69-9.71h9.71a2.57,2.57,0,0,1,2.91,2.91v28.17Zm-11.65-15.54h5.82V538h-5.82c-3.89,0-6.8,1.94-6.8,5.82C338.91,546.73,340.85,548.67,344.74,548.67Z"/></g><g class="cls-3"><path class="cls-1" d="M375.81,545.75c0-7.76,4.86-13.59,12.63-13.59,5.82,0,9.71,2.91,11.65,7.77v1a2.57,2.57,0,0,1-2.91,2.91c-1,0-1.95-1-2.92-1.94-1-2.91-2.91-4.86-6.79-4.86s-6.8,3.89-6.8,9.72v6.79c0,5.83,2.91,9.71,6.8,9.71,2.91,0,4.85-1.94,6.79-4.85,1-1,1-1.94,2.92-1.94a2.57,2.57,0,0,1,2.91,2.91v1c-1.94,4.86-5.83,7.77-11.65,7.77-7.77,0-12.63-5.83-12.63-13.6Z"/></g><g class="cls-3"><path class="cls-1" d="M428.25,533.13a2.58,2.58,0,0,1,2.92,2.91v29.14a2.58,2.58,0,0,1-2.92,2.91,3.1,3.1,0,0,1-2.91-2.91V538H412.71v22.33c0,4.86-2.91,7.77-8.74,7.77a2.09,2.09,0,0,1-1.94-1.94c0-1,1-2.92,1.94-2.92h0a2.58,2.58,0,0,0,2.92-2.91V536a2.57,2.57,0,0,1,2.91-2.91Z"/><path class="cls-1" d="M448.65,549.64l6.79-15.54a2.09,2.09,0,0,1,1.94-1.94,3.1,3.1,0,0,1,2.92,2.91v1l-10.68,24.28c-1.95,4.86-3.89,5.83-7.77,5.83a1.95,1.95,0,0,1,0-3.89q1.45,0,2.91-2.91l1-3.88L436,536V534.1a3.1,3.1,0,0,1,2.91-2.91,2.09,2.09,0,0,1,1.95,1.94Z"/><path class="cls-1" d="M480.69,564.21V553.52l-4.85-2.91-7.77,14.57a2.09,2.09,0,0,1-1.95,1.94,3.1,3.1,0,0,1-2.91-2.91v-2L471,547.7c-3.88-2.92-5.83-6.8-5.83-12.63a2.92,2.92,0,0,1,5.83,0c0,4.86,1,7.77,6.8,10.68l2.91,2V535.07a2.92,2.92,0,0,1,5.83,0V547.7l2.91-2c5.83-3.88,6.8-5.82,6.8-10.68a2.92,2.92,0,0,1,5.83,0c0,5.83-1.95,9.71-5.83,12.63l6.8,15.53v1.95a2.58,2.58,0,0,1-2.92,2.91,2.09,2.09,0,0,1-1.94-1.94l-7.77-14.57-4.85,2.91v10.69a2.58,2.58,0,0,1-2.92,2.91C480.69,568.09,480.69,566.15,480.69,564.21Z"/><path class="cls-1" d="M514.68,546.73h5.83c6.79,0,11.65,3.88,11.65,9.71s-3.89,9.71-11.65,9.71h-8.74a2.58,2.58,0,0,1-2.92-2.92V534.1a2.58,2.58,0,0,1,2.92-2.91h14.56a1.94,1.94,0,0,1,0,3.88H514.68v11.66Zm0,4.85v10.68h5.83c4.85,0,6.79-1.94,6.79-4.85s-1.94-4.86-6.79-4.86h-5.83Z"/><path class="cls-1" d="M542.84,559.35l-1.94,5.83c0,1-1,1.94-2.91,1.94a3.1,3.1,0,0,1-2.92-2.91v-1l10.68-29.13c0-1,2-1.94,2.92-1.94,1.94,0,2.91,1,2.91,1.94l10.68,29.13v1a2.57,2.57,0,0,1-2.91,2.91c-1,0-1.94-1-2.91-1.94l-2-5.83Zm11.65-4.86-4.85-13.59-4.86,13.59Z"/></g></g></svg>