<svg width="2752" height="1216" viewBox="0 0 2752 1216" fill="none" xmlns="http://www.w3.org/2000/svg">
    <path opacity="0.3" d="M1610.81 792.876C1576.41 773.76 1546.46 759.104 1518.43 741.899C1439.43 692.834 1357.88 646.318 1283.34 590.88C1233.01 553.285 1186.5 507.405 1148.91 457.066C1050.8 326.437 1076.92 176.055 1209.44 79.1986C1356.61 -28.4902 1602.53 -25.9411 1747.79 84.2966C1815.96 136.548 1855.46 206.003 1857.37 290.753C1859.28 371.041 1852.27 451.33 1844.62 531.619C1840.17 581.959 1827.42 631.661 1817.87 685.824C1908.34 733.615 2005.81 743.811 2101.38 752.095C2257.47 765.476 2414.19 769.936 2570.92 778.22C2604.69 780.131 2639.09 778.22 2672.86 782.044C2721.91 787.779 2749.31 813.267 2751.86 850.225C2754.4 890.369 2723.19 919.682 2667.12 926.054C2641.64 928.603 2616.15 927.965 2590.67 928.602C2326.91 931.788 2065.06 919.044 1807.67 853.411C1795.57 850.225 1782.83 851.499 1761.8 850.225C1749.06 866.793 1731.86 884.635 1718.48 905.026C1655.41 1000.61 1568.12 1066.24 1461.73 1104.47C1210.71 1194.32 952.046 1236.38 686.375 1206.43C515.633 1187.31 357.632 1123.59 218.744 1019.72C47.3642 891.007 -26.5395 720.871 8.50107 508.043C18.0576 449.419 30.7996 391.433 46.7271 334.721C56.2836 299.675 84.9531 284.382 113.623 288.842C141.018 293.303 164.59 319.428 165.865 352.563C166.502 377.415 163.316 402.903 159.494 428.391C148.663 504.219 149.3 579.41 156.308 655.875C162.042 724.057 185.615 780.132 230.212 826.649C267.801 866.156 309.849 903.752 356.357 932.426C484.414 1011.44 624.577 1058.59 776.207 1064.33C977.531 1071.98 1173.76 1043.3 1365.53 984.04C1447.71 958.551 1523.53 921.593 1578.32 852.137C1590.42 834.932 1598.07 815.178 1610.81 792.876ZM1674.52 645.681C1687.9 591.518 1699.37 555.197 1705.1 518.239C1714.02 464.076 1723.58 409.274 1724.21 354.474C1726.12 239.138 1682.8 181.152 1573.86 149.292C1494.86 126.352 1415.22 126.989 1338.13 162.036C1232.37 210.464 1188.41 300.949 1290.98 401.628C1397.38 506.768 1522.89 581.96 1674.52 645.681Z" fill="#DBF1FF"/>
</svg>